<svg width="30" height="30" viewBox="0 0 30 30" fill="none" xmlns="http://www.w3.org/2000/svg">
<g id="Category">
<path id="Vector" d="M2.5 13.75V5.75C2.5 5.55109 2.57902 5.36032 2.71967 5.21967C2.86032 5.07902 3.05109 5 3.25 5H10.9725C11.1513 4.99999 11.3241 5.06382 11.46 5.18L15.415 8.57C15.5509 8.68618 15.7237 8.75001 15.9025 8.75H26.75C26.8485 8.75 26.946 8.7694 27.037 8.80709C27.128 8.84478 27.2107 8.90003 27.2803 8.96967C27.35 9.03931 27.4052 9.12199 27.4429 9.21299C27.4806 9.30398 27.5 9.40151 27.5 9.5V13.75M2.5 13.75V24.25C2.5 24.4489 2.57902 24.6397 2.71967 24.7803C2.86032 24.921 3.05109 25 3.25 25H26.75C26.9489 25 27.1397 24.921 27.2803 24.7803C27.421 24.6397 27.5 24.4489 27.5 24.25V13.75M2.5 13.75H27.5" stroke="#92278E" stroke-width="2" stroke-linecap="round" stroke-linejoin="round"/>
</g>
</svg>
