<?xml version="1.0" encoding="UTF-8"?>
<svg width="24px" height="24px" viewBox="0 0 24 24" version="1.1" xmlns="http://www.w3.org/2000/svg" xmlns:xlink="http://www.w3.org/1999/xlink">
    <title>2170D931-8767-4FFD-B4F5-4E9728E4AE91</title>
    <g id="screens" stroke="none" stroke-width="1" fill="none" fill-rule="evenodd">
        <g id="Style-Guide" transform="translate(-80.000000, -4652.000000)" fill="#0076FB" fill-rule="nonzero">
            <g id="section" transform="translate(0.000000, 4428.000000)">
                <g transform="translate(80.000000, 88.000000)" id="icon-ui-/-facebook-color">
                    <g transform="translate(0.000000, 136.000000)">
                        <path d="M22,12.0612423 C22,6.50443695 17.5230596,2 12.0012498,2 C6.47694038,2.00124984 2,6.50443695 2,12.0624922 C2,17.0831146 5.65704287,21.2450944 10.4364454,22 L10.4364454,14.9696288 L7.89926259,14.9696288 L7.89926259,12.0624922 L10.4389451,12.0624922 L10.4389451,9.8440195 C10.4389451,7.32308461 11.9325084,5.93075866 14.215973,5.93075866 C15.3108361,5.93075866 16.4544432,6.12698413 16.4544432,6.12698413 L16.4544432,8.60167479 L15.1933508,8.60167479 C13.952256,8.60167479 13.5648044,9.37782777 13.5648044,10.1739783 L13.5648044,12.0612423 L16.3369579,12.0612423 L15.8945132,14.968379 L13.5635546,14.968379 L13.5635546,21.9987502 C18.3429571,21.2438445 22,17.0818648 22,12.0612423 Z" id="Path"></path>
                    </g>
                </g>
            </g>
        </g>
    </g>
</svg>