<?xml version="1.0" encoding="UTF-8"?>
<svg width="24px" height="24px" viewBox="0 0 24 24" version="1.1" xmlns="http://www.w3.org/2000/svg" xmlns:xlink="http://www.w3.org/1999/xlink">
    <title>DFB9EBBF-F37D-4955-934B-C92F88E52276</title>
    <g id="screens" stroke="none" stroke-width="1" fill="none" fill-rule="evenodd">
        <g id="Style-Guide" transform="translate(-120.000000, -4652.000000)" fill-rule="nonzero">
            <g id="section" transform="translate(0.000000, 4428.000000)">
                <g transform="translate(80.000000, 88.000000)" id="icon-ui-/-google-color">
                    <g transform="translate(40.000000, 136.000000)">
                        <path d="M21.8055,10.0415 L21,10.0415 L21,10 L12,10 L12,14 L17.6515,14 C16.827,16.3285 14.6115,18 12,18 C8.6865,18 6,15.3135 6,12 C6,8.6865 8.6865,6 12,6 C13.5295,6 14.921,6.577 15.9805,7.5195 L18.809,4.691 C17.023,3.0265 14.634,2 12,2 C6.4775,2 2,6.4775 2,12 C2,17.5225 6.4775,22 12,22 C17.5225,22 22,17.5225 22,12 C22,11.3295 21.931,10.675 21.8055,10.0415 Z" id="Path" fill="#FFC107"></path>
                        <path d="M3.153,7.3455 L6.4385,9.755 C7.3275,7.554 9.4805,6 12,6 C13.5295,6 14.921,6.577 15.9805,7.5195 L18.809,4.691 C17.023,3.0265 14.634,2 12,2 C8.159,2 4.828,4.1685 3.153,7.3455 Z" id="Path" fill="#FF3D00"></path>
                        <path d="M12,22 C14.583,22 16.93,21.0115 18.7045,19.404 L15.6095,16.785 C14.5717718,17.5741949 13.3037283,18.0010332 12,18 C9.399,18 7.1905,16.3415 6.3585,14.027 L3.0975,16.5395 C4.7525,19.778 8.1135,22 12,22 Z" id="Path" fill="#4CAF50"></path>
                        <path d="M21.8055,10.0415 L21,10.0415 L21,10 L12,10 L12,14 L17.6515,14 C17.2571029,15.108207 16.5466781,16.0765888 15.608,16.7855 L15.6095,16.7845 L18.7045,19.4035 C18.4855,19.6025 22,17 22,12 C22,11.3295 21.931,10.675 21.8055,10.0415 Z" id="Path" fill="#1976D2"></path>
                    </g>
                </g>
            </g>
        </g>
    </g>
</svg>