<svg xmlns="http://www.w3.org/2000/svg" width="300" height="64" viewBox="0 0 300 64" fill="none">
    <path d="M103.2 17.3813C94.7428 17.3813 88.5714 10.3597 86.1714 3.33815C85.1428 1.78223e-05 85.1428 2.54517e-05 85.1428 2.54517e-05L-6.17986e-05 2.6467e-05C-6.09407e-05 71.9425 53.2571 66.1871 64.9142 61.5828C81.8285 54.9065 95.7714 42.2446 102.857 38.5612C109.943 34.8777 120.229 41.4389 130.857 44.5468C141.486 47.6547 148.229 42.4748 153.486 30.1583C158.743 17.8417 156.343 8.63312 156.343 8.63312C156.343 8.63312 248 6.33096 254.057 6.90649C260.114 7.48204 259.2 9.78419 259.2 9.78419C260.914 9.55398 263.2 9.43887 265.829 9.43887L265.829 9.8993L265.371 9.8993L263.429 11.1655L263.429 13.5828C263.429 13.5828 264.114 15.3094 266.971 15.3094C269.829 15.4245 270.514 13.6979 270.514 13.6979L270.514 11.2806L268.8 9.8993L268.343 9.8993L268.343 9.43887C270.514 9.43887 272.914 9.55397 275.2 9.66908L275.2 10.5899L274.743 10.5899L272.914 11.9712L272.914 14.3885C272.914 14.3885 273.6 16.1151 276.457 16.1151C279.314 16.1151 280 14.5036 280 14.5036L280 12.0863L278.286 10.7051L277.829 10.7051L277.829 9.8993C280.229 10.0144 282.514 10.2446 284.686 10.3597L284.686 11.3957L284.229 11.3957L282.514 12.777L282.514 15.1943C282.514 15.1943 283.2 16.9209 286.057 16.9209C288.914 17.036 289.6 15.3094 289.6 15.3094L289.6 12.8921L287.886 11.5108L287.429 11.5108L287.429 10.5899C292.343 10.9353 295.771 11.3957 295.771 11.3957C296.343 7.0216 300.114 4.48923 300.114 4.48923C300.114 4.48923 298.057 2.76261 298.057 0.115128L120.571 0.11513C120.571 9.55398 112.8 17.3813 103.2 17.3813Z" fill="white"/>
</svg>
