<svg width="20" height="20" viewBox="0 0 20 20" fill="none" xmlns="http://www.w3.org/2000/svg">
<g id="Location">
<path id="Vector" d="M16.6666 8.33329C16.6666 12.015 9.99992 18.3333 9.99992 18.3333C9.99992 18.3333 3.33325 12.015 3.33325 8.33329C3.33325 6.56518 4.03563 4.86949 5.28587 3.61925C6.53612 2.36901 8.23181 1.66663 9.99992 1.66663C11.768 1.66663 13.4637 2.36901 14.714 3.61925C15.9642 4.86949 16.6666 6.56518 16.6666 8.33329Z" stroke="#92278E" stroke-width="2"/>
<path id="Vector_2" d="M10.0001 9.66667C10.3537 9.66667 10.6928 9.52619 10.9429 9.27614C11.1929 9.02609 11.3334 8.68696 11.3334 8.33333C11.3334 7.97971 11.1929 7.64057 10.9429 7.39052C10.6928 7.14048 10.3537 7 10.0001 7C9.64646 7 9.30732 7.14048 9.05727 7.39052C8.80722 7.64057 8.66675 7.97971 8.66675 8.33333C8.66675 8.68696 8.80722 9.02609 9.05727 9.27614C9.30732 9.52619 9.64646 9.66667 10.0001 9.66667Z" stroke="#92278E" stroke-linecap="round" stroke-linejoin="round"/>
</g>
</svg>
