<svg width="30" height="30" viewBox="0 0 30 30" fill="none" xmlns="http://www.w3.org/2000/svg">
<g id="Play Icon">
<path id="Vector" d="M5.6125 2.14452C5.45037 2.05148 5.26568 2.00163 5.0772 2.00004C4.88873 1.99845 4.70317 2.04516 4.53939 2.13545C4.3756 2.22573 4.23943 2.35636 4.14469 2.51406C4.04995 2.67177 4.00003 2.85093 4 3.03336V26.9666C4.00003 27.1491 4.04995 27.3282 4.14469 27.4859C4.23943 27.6436 4.3756 27.7743 4.53939 27.8646C4.70317 27.9548 4.88873 28.0016 5.0772 28C5.26568 27.9984 5.45037 27.9485 5.6125 27.8555L26.4771 15.8888C26.6364 15.7973 26.7684 15.6673 26.8601 15.5114C26.9518 15.3556 27 15.1793 27 15C27 14.8207 26.9518 14.6444 26.8601 14.4886C26.7684 14.3327 26.6364 14.2027 26.4771 14.1112L5.6125 2.14452Z" fill="url(#paint0_linear_1106_2158)"/>
</g>
<defs>
<linearGradient id="paint0_linear_1106_2158" x1="4" y1="14.6486" x2="27" y2="14.6486" gradientUnits="userSpaceOnUse">
<stop stop-color="#7F00FF"/>
<stop offset="1" stop-color="#E100FF"/>
</linearGradient>
</defs>
</svg>
