<?xml version="1.0" encoding="UTF-8"?>
<svg width="24" height="28" viewBox="0 0 24 28" fill="none" xmlns="http://www.w3.org/2000/svg">
    <path d="M8.25 1.5H15.75M12 11.5V16.5M12 26.5C14.6522 26.5 17.1957 25.4464 19.0711 23.5711C20.9464 21.6957 22 19.1522 22 16.5C22 13.8478 20.9464 11.3043 19.0711 9.42893C17.1957 7.55357 14.6522 6.5 12 6.5C9.34784 6.5 6.8043 7.55357 4.92893 9.42893C3.05357 11.3043 2 13.8478 2 16.5C2 19.1522 3.05357 21.6957 4.92893 23.5711C6.8043 25.4464 9.34784 26.5 12 26.5Z" stroke="url(#paint0_linear_763_629)" stroke-width="3" stroke-linecap="round" stroke-linejoin="round"/>
    <defs>
        <linearGradient id="paint0_linear_763_629" x1="2" y1="13.6622" x2="22" y2="13.6622" gradientUnits="userSpaceOnUse">
            <stop stop-color="#7F00FF"/>
            <stop offset="1" stop-color="#E100FF"/>
        </linearGradient>
    </defs>
</svg>
