<?xml version="1.0" encoding="UTF-8"?>
<svg width="30" height="30" viewBox="0 0 30 30" fill="none" xmlns="http://www.w3.org/2000/svg">
    <path d="M25 12.5C25 18.0225 15 27.5 15 27.5C15 27.5 5 18.0225 5 12.5C5 9.84784 6.05357 7.3043 7.92893 5.42893C9.8043 3.55357 12.3478 2.5 15 2.5C17.6522 2.5 20.1957 3.55357 22.0711 5.42893C23.9464 7.3043 25 9.84784 25 12.5Z" stroke="url(#paint0_linear_367_200)" stroke-width="3"/>
    <path d="M15 13.75C15.3315 13.75 15.6495 13.6183 15.8839 13.3839C16.1183 13.1495 16.25 12.8315 16.25 12.5C16.25 12.1685 16.1183 11.8505 15.8839 11.6161C15.6495 11.3817 15.3315 11.25 15 11.25C14.6685 11.25 14.3505 11.3817 14.1161 11.6161C13.8817 11.8505 13.75 12.1685 13.75 12.5C13.75 12.8315 13.8817 13.1495 14.1161 13.3839C14.3505 13.6183 14.6685 13.75 15 13.75Z" fill="url(#paint1_linear_367_200)" stroke="url(#paint2_linear_367_200)" stroke-width="3" stroke-linecap="round" stroke-linejoin="round"/>
    <defs>
        <linearGradient id="paint0_linear_367_200" x1="5" y1="14.6622" x2="25" y2="14.6622" gradientUnits="userSpaceOnUse">
            <stop stop-color="#252161"/>
            <stop offset="1" stop-color="#92278E"/>
        </linearGradient>
        <linearGradient id="paint1_linear_367_200" x1="13.75" y1="12.4662" x2="16.25" y2="12.4662" gradientUnits="userSpaceOnUse">
            <stop stop-color="#252161"/>
            <stop offset="1" stop-color="#92278E"/>
        </linearGradient>
        <linearGradient id="paint2_linear_367_200" x1="13.75" y1="12.4662" x2="16.25" y2="12.4662" gradientUnits="userSpaceOnUse">
            <stop stop-color="#252161"/>
            <stop offset="1" stop-color="#92278E"/>
        </linearGradient>
    </defs>
</svg>
