<?xml version="1.0" encoding="UTF-8"?>
<svg width="50" height="50" viewBox="0 0 50 50" fill="none" xmlns="http://www.w3.org/2000/svg">
    <rect width="50" height="50" rx="10" fill="white"/>
    <path d="M15.6125 12.1445C15.4504 12.0515 15.2657 12.0016 15.0772 12C14.8887 11.9984 14.7032 12.0452 14.5394 12.1354C14.3756 12.2257 14.2394 12.3564 14.1447 12.5141C14.05 12.6718 14 12.8509 14 13.0334V36.9666C14 37.1491 14.05 37.3282 14.1447 37.4859C14.2394 37.6436 14.3756 37.7743 14.5394 37.8646C14.7032 37.9548 14.8887 38.0016 15.0772 38C15.2657 37.9984 15.4504 37.9485 15.6125 37.8555L36.4771 25.8888C36.6364 25.7973 36.7684 25.6673 36.8601 25.5114C36.9518 25.3556 37 25.1793 37 25C37 24.8207 36.9518 24.6444 36.8601 24.4886C36.7684 24.3327 36.6364 24.2027 36.4771 24.1112L15.6125 12.1445Z" fill="url(#paint0_linear_368_720)"/>
    <defs>
        <linearGradient id="paint0_linear_368_720" x1="14" y1="24.6486" x2="37" y2="24.6486" gradientUnits="userSpaceOnUse">
            <stop stop-color="#252161"/>
            <stop offset="1" stop-color="#92278E"/>
        </linearGradient>
    </defs>
</svg>
